<svg width="274" height="231" viewBox="0 0 274 231" fill="none" xmlns="http://www.w3.org/2000/svg">
<g clip-path="url(#clip0_58_1873)">
<path d="M121.775 230.484C122.498 230.484 123.13 230.097 123.471 229.522L123.501 229.518L123.611 229.234C123.695 229.016 123.742 228.78 123.742 228.534V188.528C123.742 187.457 122.871 186.588 121.792 186.578L121.766 186.577C121.739 186.575 121.698 186.572 121.644 186.569C121.536 186.561 121.375 186.549 121.168 186.531C120.752 186.495 120.148 186.437 119.396 186.346C117.891 186.165 115.798 185.854 113.449 185.339C108.734 184.305 103.053 182.46 98.9963 179.226C93.0645 174.498 90.3333 168.162 89.0865 162.98C88.4642 160.391 88.2146 158.099 88.1205 156.456C88.0737 155.634 88.0659 154.976 88.0695 154.525C88.0711 154.299 88.0758 154.125 88.0799 154.009C88.081 153.983 88.082 153.959 88.0831 153.939C88.0841 153.915 88.0852 153.894 88.0857 153.878L88.0872 153.847L88.0878 153.84V153.838L88.0888 153.822V153.807V134.471H121.775C122.861 134.471 123.742 133.597 123.742 132.52V97.7068C123.742 96.6297 122.861 95.7567 121.775 95.7567H121.773L79.8688 95.9104H79.8657L2.48689 95.7567H2.48585C1.39985 95.7567 0.519531 96.6297 0.519531 97.7068V132.52C0.519531 133.597 1.39985 134.471 2.48584 134.471H37.0831V151.772V168.072V168.097L37.0857 168.123C38.1561 178.681 41.3414 188.254 46.645 196.836L46.6476 196.84L46.6503 196.844C53.465 207.416 62.4664 215.65 73.6489 221.542L73.6521 221.543C85.0082 227.435 97.4963 230.378 111.107 230.378C114.749 230.378 118.305 230.167 121.775 229.745V230.484ZM61.0647 71.8379C80.9227 71.8379 97.0211 55.8721 97.0211 36.1768C97.0211 16.4817 80.9227 0.515625 61.0647 0.515625C41.2064 0.515625 25.1081 16.4817 25.1081 36.1768C25.1081 55.8721 41.2064 71.8379 61.0647 71.8379Z" fill="white" stroke="white" stroke-width="2"/>
<path d="M265.874 230.484C266.597 230.484 267.228 230.097 267.57 229.522L267.599 229.518L267.71 229.234C267.794 229.016 267.84 228.78 267.84 228.534V188.528C267.84 187.457 266.969 186.587 265.89 186.578L265.864 186.577C265.837 186.575 265.797 186.572 265.743 186.569C265.635 186.561 265.474 186.548 265.267 186.531C264.851 186.495 264.246 186.437 263.494 186.346C261.989 186.165 259.897 185.854 257.547 185.339C252.833 184.305 247.152 182.46 243.095 179.226C237.163 174.498 234.432 168.162 233.185 162.98C232.563 160.391 232.313 158.099 232.219 156.456C232.172 155.634 232.165 154.976 232.168 154.525C232.17 154.299 232.174 154.125 232.179 154.009C232.181 153.951 232.183 153.907 232.184 153.878L232.186 153.847L232.186 153.84V153.838L232.187 153.822V153.807V134.47H265.874C266.96 134.47 267.84 133.597 267.84 132.52V97.7068C267.84 96.6297 266.96 95.7567 265.874 95.7567H265.872L223.967 95.9104H223.964L146.586 95.7567H146.585C145.498 95.7567 144.618 96.6297 144.618 97.7068V132.52C144.618 133.597 145.498 134.47 146.585 134.47H181.182V151.772V168.072V168.097L181.184 168.123C182.255 178.681 185.44 188.254 190.744 196.836L190.746 196.84L190.749 196.844C197.564 207.416 206.565 215.65 217.748 221.542L217.751 221.543C229.107 227.435 241.595 230.378 255.206 230.378C258.848 230.378 262.404 230.167 265.874 229.745V230.484ZM205.163 71.8379C225.021 71.8379 241.12 55.8721 241.12 36.1768C241.12 16.4817 225.021 0.515625 205.163 0.515625C185.305 0.515625 169.207 16.4817 169.207 36.1768C169.207 55.8721 185.305 71.8379 205.163 71.8379Z" fill="#FA4D1E" stroke="#FA4D1E" stroke-width="2"/>
</g>
<defs>
<clipPath id="clip0_58_1873">
<rect width="274" height="231" fill="white"/>
</clipPath>
</defs>
</svg>
